<mxfile host="app.diagrams.net" agent="Mozilla/5.0 (Windows NT 10.0; Win64; x64) AppleWebKit/537.36 (KHTML, like Gecko) Chrome/131.0.0.0 Safari/537.36" version="25.0.3">
  <diagram name="Seite-1" id="4uBMfo7n03xIDV4K4cg7">
    <mxGraphModel dx="747" dy="809" grid="1" gridSize="10" guides="1" tooltips="1" connect="1" arrows="1" fold="1" page="1" pageScale="1" pageWidth="827" pageHeight="1169" math="0" shadow="0">
      <root>
        <mxCell id="0" />
        <mxCell id="1" parent="0" />
        <mxCell id="fySsOb4_cQx3E3ten5vy-2" value="" style="shape=folder;fontStyle=1;spacingTop=10;tabWidth=40;tabHeight=14;tabPosition=left;html=1;whiteSpace=wrap;" parent="1" vertex="1">
          <mxGeometry x="190" y="270" width="270" height="245" as="geometry" />
        </mxCell>
        <mxCell id="N-CDoWvpXRVu2y2NBfi8-15" style="edgeStyle=orthogonalEdgeStyle;rounded=0;orthogonalLoop=1;jettySize=auto;html=1;entryX=0;entryY=0.5;entryDx=0;entryDy=0;" edge="1" parent="1" source="fySsOb4_cQx3E3ten5vy-1" target="N-CDoWvpXRVu2y2NBfi8-11">
          <mxGeometry relative="1" as="geometry" />
        </mxCell>
        <mxCell id="fySsOb4_cQx3E3ten5vy-1" value="Actor" style="shape=umlActor;verticalLabelPosition=bottom;verticalAlign=top;html=1;outlineConnect=0;" parent="1" vertex="1">
          <mxGeometry x="60" y="280" width="30" height="60" as="geometry" />
        </mxCell>
        <mxCell id="fySsOb4_cQx3E3ten5vy-3" value="gui" style="text;html=1;align=center;verticalAlign=middle;whiteSpace=wrap;rounded=0;" parent="1" vertex="1">
          <mxGeometry x="180" y="260" width="70" height="30" as="geometry" />
        </mxCell>
        <mxCell id="fySsOb4_cQx3E3ten5vy-7" value="" style="shape=folder;fontStyle=1;spacingTop=10;tabWidth=40;tabHeight=14;tabPosition=left;html=1;whiteSpace=wrap;" parent="1" vertex="1">
          <mxGeometry x="150" y="640" width="230" height="150" as="geometry" />
        </mxCell>
        <mxCell id="fySsOb4_cQx3E3ten5vy-49" style="edgeStyle=orthogonalEdgeStyle;rounded=0;orthogonalLoop=1;jettySize=auto;html=1;entryX=0;entryY=0.5;entryDx=0;entryDy=0;" parent="1" source="fySsOb4_cQx3E3ten5vy-9" target="fySsOb4_cQx3E3ten5vy-32" edge="1">
          <mxGeometry relative="1" as="geometry" />
        </mxCell>
        <mxCell id="fySsOb4_cQx3E3ten5vy-50" style="edgeStyle=orthogonalEdgeStyle;rounded=0;orthogonalLoop=1;jettySize=auto;html=1;entryX=0;entryY=0.5;entryDx=0;entryDy=0;" parent="1" source="fySsOb4_cQx3E3ten5vy-9" target="fySsOb4_cQx3E3ten5vy-33" edge="1">
          <mxGeometry relative="1" as="geometry" />
        </mxCell>
        <mxCell id="fySsOb4_cQx3E3ten5vy-51" style="edgeStyle=orthogonalEdgeStyle;rounded=0;orthogonalLoop=1;jettySize=auto;html=1;entryX=0;entryY=0.5;entryDx=0;entryDy=0;" parent="1" source="fySsOb4_cQx3E3ten5vy-9" target="fySsOb4_cQx3E3ten5vy-34" edge="1">
          <mxGeometry relative="1" as="geometry" />
        </mxCell>
        <mxCell id="fySsOb4_cQx3E3ten5vy-53" style="edgeStyle=orthogonalEdgeStyle;rounded=0;orthogonalLoop=1;jettySize=auto;html=1;entryX=0;entryY=0.5;entryDx=0;entryDy=0;" parent="1" source="fySsOb4_cQx3E3ten5vy-9" target="fySsOb4_cQx3E3ten5vy-31" edge="1">
          <mxGeometry relative="1" as="geometry" />
        </mxCell>
        <mxCell id="fySsOb4_cQx3E3ten5vy-9" value="HitoriGame" style="swimlane;fontStyle=0;childLayout=stackLayout;horizontal=1;startSize=26;fillColor=none;horizontalStack=0;resizeParent=1;resizeParentMax=0;resizeLast=0;collapsible=1;marginBottom=0;whiteSpace=wrap;html=1;" parent="1" vertex="1">
          <mxGeometry x="290" y="340" width="140" height="52" as="geometry" />
        </mxCell>
        <mxCell id="N-CDoWvpXRVu2y2NBfi8-18" style="edgeStyle=orthogonalEdgeStyle;rounded=0;orthogonalLoop=1;jettySize=auto;html=1;entryX=0.5;entryY=1;entryDx=0;entryDy=0;" edge="1" parent="1" source="fySsOb4_cQx3E3ten5vy-15" target="N-CDoWvpXRVu2y2NBfi8-11">
          <mxGeometry relative="1" as="geometry" />
        </mxCell>
        <mxCell id="fySsOb4_cQx3E3ten5vy-15" value="Main" style="swimlane;fontStyle=0;childLayout=stackLayout;horizontal=1;startSize=26;fillColor=none;horizontalStack=0;resizeParent=1;resizeParentMax=0;resizeLast=0;collapsible=1;marginBottom=0;whiteSpace=wrap;html=1;" parent="1" vertex="1">
          <mxGeometry x="200" y="700" width="140" height="52" as="geometry" />
        </mxCell>
        <mxCell id="fySsOb4_cQx3E3ten5vy-19" value="main" style="text;html=1;align=center;verticalAlign=middle;whiteSpace=wrap;rounded=0;" parent="1" vertex="1">
          <mxGeometry x="130" y="630" width="70" height="30" as="geometry" />
        </mxCell>
        <mxCell id="fySsOb4_cQx3E3ten5vy-24" value="hitori: Hitori" style="text;html=1;align=center;verticalAlign=middle;whiteSpace=wrap;rounded=0;" parent="1" vertex="1">
          <mxGeometry x="190" y="722" width="100" height="30" as="geometry" />
        </mxCell>
        <mxCell id="fySsOb4_cQx3E3ten5vy-25" value="" style="shape=folder;fontStyle=1;spacingTop=10;tabWidth=40;tabHeight=14;tabPosition=left;html=1;whiteSpace=wrap;" parent="1" vertex="1">
          <mxGeometry x="840" y="312" width="510" height="508" as="geometry" />
        </mxCell>
        <mxCell id="fySsOb4_cQx3E3ten5vy-26" value="domain" style="text;html=1;align=center;verticalAlign=middle;whiteSpace=wrap;rounded=0;" parent="1" vertex="1">
          <mxGeometry x="830" y="302" width="60" height="30" as="geometry" />
        </mxCell>
        <mxCell id="fySsOb4_cQx3E3ten5vy-41" style="edgeStyle=orthogonalEdgeStyle;rounded=0;orthogonalLoop=1;jettySize=auto;html=1;entryX=1;entryY=0.5;entryDx=0;entryDy=0;" parent="1" source="fySsOb4_cQx3E3ten5vy-27" target="fySsOb4_cQx3E3ten5vy-32" edge="1">
          <mxGeometry relative="1" as="geometry" />
        </mxCell>
        <mxCell id="fySsOb4_cQx3E3ten5vy-42" style="edgeStyle=orthogonalEdgeStyle;rounded=0;orthogonalLoop=1;jettySize=auto;html=1;entryX=1;entryY=0.5;entryDx=0;entryDy=0;" parent="1" source="fySsOb4_cQx3E3ten5vy-27" target="fySsOb4_cQx3E3ten5vy-31" edge="1">
          <mxGeometry relative="1" as="geometry" />
        </mxCell>
        <mxCell id="fySsOb4_cQx3E3ten5vy-43" style="edgeStyle=orthogonalEdgeStyle;rounded=0;orthogonalLoop=1;jettySize=auto;html=1;entryX=1;entryY=0.5;entryDx=0;entryDy=0;" parent="1" source="fySsOb4_cQx3E3ten5vy-27" target="fySsOb4_cQx3E3ten5vy-33" edge="1">
          <mxGeometry relative="1" as="geometry" />
        </mxCell>
        <mxCell id="fySsOb4_cQx3E3ten5vy-44" style="edgeStyle=orthogonalEdgeStyle;rounded=0;orthogonalLoop=1;jettySize=auto;html=1;entryX=1;entryY=0.5;entryDx=0;entryDy=0;" parent="1" source="fySsOb4_cQx3E3ten5vy-27" target="fySsOb4_cQx3E3ten5vy-34" edge="1">
          <mxGeometry relative="1" as="geometry" />
        </mxCell>
        <mxCell id="N-CDoWvpXRVu2y2NBfi8-19" style="edgeStyle=orthogonalEdgeStyle;rounded=0;orthogonalLoop=1;jettySize=auto;html=1;" edge="1" parent="1" source="fySsOb4_cQx3E3ten5vy-27" target="N-CDoWvpXRVu2y2NBfi8-1">
          <mxGeometry relative="1" as="geometry" />
        </mxCell>
        <mxCell id="fySsOb4_cQx3E3ten5vy-27" value="Fassade" style="swimlane;fontStyle=0;childLayout=stackLayout;horizontal=1;startSize=26;fillColor=none;horizontalStack=0;resizeParent=1;resizeParentMax=0;resizeLast=0;collapsible=1;marginBottom=0;whiteSpace=wrap;html=1;" parent="1" vertex="1">
          <mxGeometry x="860" y="342.5" width="140" height="52" as="geometry" />
        </mxCell>
        <mxCell id="fySsOb4_cQx3E3ten5vy-31" value="" style="ellipse;whiteSpace=wrap;html=1;aspect=fixed;" parent="1" vertex="1">
          <mxGeometry x="620" y="326.5" width="80" height="80" as="geometry" />
        </mxCell>
        <mxCell id="fySsOb4_cQx3E3ten5vy-32" value="" style="ellipse;whiteSpace=wrap;html=1;aspect=fixed;" parent="1" vertex="1">
          <mxGeometry x="620" y="428" width="80" height="80" as="geometry" />
        </mxCell>
        <mxCell id="fySsOb4_cQx3E3ten5vy-33" value="" style="ellipse;whiteSpace=wrap;html=1;aspect=fixed;" parent="1" vertex="1">
          <mxGeometry x="620" y="536" width="80" height="80" as="geometry" />
        </mxCell>
        <mxCell id="fySsOb4_cQx3E3ten5vy-34" value="" style="ellipse;whiteSpace=wrap;html=1;aspect=fixed;" parent="1" vertex="1">
          <mxGeometry x="620" y="646" width="80" height="80" as="geometry" />
        </mxCell>
        <mxCell id="fySsOb4_cQx3E3ten5vy-35" value="" style="ellipse;whiteSpace=wrap;html=1;aspect=fixed;" parent="1" vertex="1">
          <mxGeometry x="620" y="758" width="80" height="80" as="geometry" />
        </mxCell>
        <mxCell id="fySsOb4_cQx3E3ten5vy-45" style="edgeStyle=orthogonalEdgeStyle;rounded=0;orthogonalLoop=1;jettySize=auto;html=1;entryX=1;entryY=0.725;entryDx=0;entryDy=0;entryPerimeter=0;" parent="1" source="fySsOb4_cQx3E3ten5vy-27" target="fySsOb4_cQx3E3ten5vy-35" edge="1">
          <mxGeometry relative="1" as="geometry" />
        </mxCell>
        <mxCell id="fySsOb4_cQx3E3ten5vy-52" style="edgeStyle=orthogonalEdgeStyle;rounded=0;orthogonalLoop=1;jettySize=auto;html=1;entryX=0.003;entryY=0.626;entryDx=0;entryDy=0;entryPerimeter=0;" parent="1" source="fySsOb4_cQx3E3ten5vy-9" target="fySsOb4_cQx3E3ten5vy-35" edge="1">
          <mxGeometry relative="1" as="geometry" />
        </mxCell>
        <mxCell id="fySsOb4_cQx3E3ten5vy-88" value="TODO" style="text;html=1;align=center;verticalAlign=middle;whiteSpace=wrap;rounded=0;" parent="1" vertex="1">
          <mxGeometry x="520" y="326.5" width="60" height="30" as="geometry" />
        </mxCell>
        <mxCell id="fySsOb4_cQx3E3ten5vy-89" value="TODO" style="text;html=1;align=center;verticalAlign=middle;whiteSpace=wrap;rounded=0;" parent="1" vertex="1">
          <mxGeometry x="520" y="428" width="60" height="30" as="geometry" />
        </mxCell>
        <mxCell id="fySsOb4_cQx3E3ten5vy-90" value="TODO" style="text;html=1;align=center;verticalAlign=middle;whiteSpace=wrap;rounded=0;" parent="1" vertex="1">
          <mxGeometry x="530" y="540" width="60" height="30" as="geometry" />
        </mxCell>
        <mxCell id="fySsOb4_cQx3E3ten5vy-91" value="TODO" style="text;html=1;align=center;verticalAlign=middle;whiteSpace=wrap;rounded=0;" parent="1" vertex="1">
          <mxGeometry x="530" y="660" width="60" height="30" as="geometry" />
        </mxCell>
        <mxCell id="fySsOb4_cQx3E3ten5vy-92" value="TODO" style="text;html=1;align=center;verticalAlign=middle;whiteSpace=wrap;rounded=0;" parent="1" vertex="1">
          <mxGeometry x="520" y="780" width="60" height="30" as="geometry" />
        </mxCell>
        <mxCell id="N-CDoWvpXRVu2y2NBfi8-10" style="edgeStyle=orthogonalEdgeStyle;rounded=0;orthogonalLoop=1;jettySize=auto;html=1;" edge="1" parent="1" source="N-CDoWvpXRVu2y2NBfi8-1" target="N-CDoWvpXRVu2y2NBfi8-6">
          <mxGeometry relative="1" as="geometry" />
        </mxCell>
        <mxCell id="N-CDoWvpXRVu2y2NBfi8-1" value="Spieler" style="swimlane;fontStyle=1;align=center;verticalAlign=top;childLayout=stackLayout;horizontal=1;startSize=26;horizontalStack=0;resizeParent=1;resizeParentMax=0;resizeLast=0;collapsible=1;marginBottom=0;whiteSpace=wrap;html=1;" vertex="1" parent="1">
          <mxGeometry x="880" y="498" width="200" height="114" as="geometry" />
        </mxCell>
        <mxCell id="N-CDoWvpXRVu2y2NBfi8-2" value="- name: String&lt;div&gt;-score: Score&lt;/div&gt;" style="text;strokeColor=none;fillColor=none;align=left;verticalAlign=top;spacingLeft=4;spacingRight=4;overflow=hidden;rotatable=0;points=[[0,0.5],[1,0.5]];portConstraint=eastwest;whiteSpace=wrap;html=1;" vertex="1" parent="N-CDoWvpXRVu2y2NBfi8-1">
          <mxGeometry y="26" width="200" height="54" as="geometry" />
        </mxCell>
        <mxCell id="N-CDoWvpXRVu2y2NBfi8-3" value="" style="line;strokeWidth=1;fillColor=none;align=left;verticalAlign=middle;spacingTop=-1;spacingLeft=3;spacingRight=3;rotatable=0;labelPosition=right;points=[];portConstraint=eastwest;strokeColor=inherit;" vertex="1" parent="N-CDoWvpXRVu2y2NBfi8-1">
          <mxGeometry y="80" width="200" height="8" as="geometry" />
        </mxCell>
        <mxCell id="N-CDoWvpXRVu2y2NBfi8-4" value="+ method(type): type" style="text;strokeColor=none;fillColor=none;align=left;verticalAlign=top;spacingLeft=4;spacingRight=4;overflow=hidden;rotatable=0;points=[[0,0.5],[1,0.5]];portConstraint=eastwest;whiteSpace=wrap;html=1;" vertex="1" parent="N-CDoWvpXRVu2y2NBfi8-1">
          <mxGeometry y="88" width="200" height="26" as="geometry" />
        </mxCell>
        <mxCell id="N-CDoWvpXRVu2y2NBfi8-6" value="Score" style="swimlane;fontStyle=1;align=center;verticalAlign=top;childLayout=stackLayout;horizontal=1;startSize=26;horizontalStack=0;resizeParent=1;resizeParentMax=0;resizeLast=0;collapsible=1;marginBottom=0;whiteSpace=wrap;html=1;" vertex="1" parent="1">
          <mxGeometry x="930" y="694" width="160" height="86" as="geometry" />
        </mxCell>
        <mxCell id="N-CDoWvpXRVu2y2NBfi8-7" value="+ field: type" style="text;strokeColor=none;fillColor=none;align=left;verticalAlign=top;spacingLeft=4;spacingRight=4;overflow=hidden;rotatable=0;points=[[0,0.5],[1,0.5]];portConstraint=eastwest;whiteSpace=wrap;html=1;" vertex="1" parent="N-CDoWvpXRVu2y2NBfi8-6">
          <mxGeometry y="26" width="160" height="26" as="geometry" />
        </mxCell>
        <mxCell id="N-CDoWvpXRVu2y2NBfi8-8" value="" style="line;strokeWidth=1;fillColor=none;align=left;verticalAlign=middle;spacingTop=-1;spacingLeft=3;spacingRight=3;rotatable=0;labelPosition=right;points=[];portConstraint=eastwest;strokeColor=inherit;" vertex="1" parent="N-CDoWvpXRVu2y2NBfi8-6">
          <mxGeometry y="52" width="160" height="8" as="geometry" />
        </mxCell>
        <mxCell id="N-CDoWvpXRVu2y2NBfi8-9" value="+ method(type): type" style="text;strokeColor=none;fillColor=none;align=left;verticalAlign=top;spacingLeft=4;spacingRight=4;overflow=hidden;rotatable=0;points=[[0,0.5],[1,0.5]];portConstraint=eastwest;whiteSpace=wrap;html=1;" vertex="1" parent="N-CDoWvpXRVu2y2NBfi8-6">
          <mxGeometry y="60" width="160" height="26" as="geometry" />
        </mxCell>
        <mxCell id="N-CDoWvpXRVu2y2NBfi8-16" style="edgeStyle=orthogonalEdgeStyle;rounded=0;orthogonalLoop=1;jettySize=auto;html=1;" edge="1" parent="1" source="N-CDoWvpXRVu2y2NBfi8-11">
          <mxGeometry relative="1" as="geometry">
            <mxPoint x="350" y="390" as="targetPoint" />
          </mxGeometry>
        </mxCell>
        <mxCell id="N-CDoWvpXRVu2y2NBfi8-11" value="Menu" style="swimlane;fontStyle=0;childLayout=stackLayout;horizontal=1;startSize=26;fillColor=none;horizontalStack=0;resizeParent=1;resizeParentMax=0;resizeLast=0;collapsible=1;marginBottom=0;whiteSpace=wrap;html=1;" vertex="1" parent="1">
          <mxGeometry x="210" y="442" width="140" height="52" as="geometry" />
        </mxCell>
      </root>
    </mxGraphModel>
  </diagram>
</mxfile>
